<svg xmlns="http://www.w3.org/2000/svg" xmlns:xlink="http://www.w3.org/1999/xlink" width="294" height="63" viewBox="0 0 294 63">
  <defs>
    <linearGradient id="linear-gradient" x1="0.026" y1="0.5" x2="0.983" y2="0.5" gradientUnits="objectBoundingBox">
      <stop offset="0" stop-color="#3128af"/>
      <stop offset="1" stop-color="#499fb8"/>
    </linearGradient>
    <filter id="Rectangle_40" x="0" y="0" width="294" height="63" filterUnits="userSpaceOnUse">
      <feOffset dy="3" input="SourceAlpha"/>
      <feGaussianBlur stdDeviation="3" result="blur"/>
      <feFlood flood-opacity="0.302"/>
      <feComposite operator="in" in2="blur"/>
      <feComposite in="SourceGraphic"/>
    </filter>
    <filter id="Icon_awesome-angle-double-right" x="231" y="12" width="43" height="39" filterUnits="userSpaceOnUse">
      <feOffset dy="3" input="SourceAlpha"/>
      <feGaussianBlur stdDeviation="3" result="blur-2"/>
      <feFlood flood-opacity="0.302"/>
      <feComposite operator="in" in2="blur-2"/>
      <feComposite in="SourceGraphic"/>
    </filter>
  </defs>
  <g id="Component_46_94" data-name="Component 46 – 94" transform="translate(9 6)">
    <g transform="matrix(1, 0, 0, 1, -9, -6)" filter="url(#Rectangle_40)">
      <rect id="Rectangle_40-2" data-name="Rectangle 40" width="276" height="45" rx="20" transform="translate(9 6)" fill="url(#linear-gradient)"/>
    </g>
    <text id="Hello_Welcome_to_Br" data-name="Hello! Welcome to Br" transform="translate(15 33)" fill="#fff" font-size="26" font-family="SegoeUI, Segoe UI"><tspan x="0" y="0">All Calculators</tspan></text>
    <g transform="matrix(1, 0, 0, 1, -9, -6)" filter="url(#Icon_awesome-angle-double-right)">
      <path id="Icon_awesome-angle-double-right-2" data-name="Icon awesome-angle-double-right" d="M14.256,18.362l-8.53,8.922a1.453,1.453,0,0,1-2.126,0L2.182,25.8a1.619,1.619,0,0,1,0-2.224l6.046-6.324L2.182,10.929a1.619,1.619,0,0,1,0-2.224l1.411-1.5a1.453,1.453,0,0,1,2.126,0l8.53,8.922a1.621,1.621,0,0,1,.006,2.231ZM26.3,16.131l-8.53-8.922a1.453,1.453,0,0,0-2.126,0L14.225,8.692a1.619,1.619,0,0,0,0,2.224l6.046,6.324-6.046,6.324a1.619,1.619,0,0,0,0,2.224l1.417,1.483a1.453,1.453,0,0,0,2.126,0l8.53-8.922A1.611,1.611,0,0,0,26.3,16.131Z" transform="translate(238.26 11.25)" fill="#fff"/>
    </g>
  </g>
</svg>
