<svg xmlns="http://www.w3.org/2000/svg" xmlns:xlink="http://www.w3.org/1999/xlink" width="93" height="93" viewBox="0 0 93 93">
  <defs>
    <linearGradient id="linear-gradient" x2="1.02" y2="1.01" gradientUnits="objectBoundingBox">
      <stop offset="0" stop-color="#3023ae"/>
      <stop offset="1" stop-color="#4ba7b9"/>
    </linearGradient>
    <filter id="bg" x="0" y="0" width="93" height="93" filterUnits="userSpaceOnUse">
      <feOffset dy="3" input="SourceAlpha"/>
      <feGaussianBlur stdDeviation="3" result="blur"/>
      <feFlood flood-opacity="0.31"/>
      <feComposite operator="in" in2="blur"/>
      <feComposite in="SourceGraphic"/>
    </filter>
    <filter id="Icon_awesome-money-bill-wave" x="15.002" y="22.22" width="63" height="49" filterUnits="userSpaceOnUse">
      <feOffset dy="3" input="SourceAlpha"/>
      <feGaussianBlur stdDeviation="3" result="blur-2"/>
      <feFlood flood-opacity="0.302"/>
      <feComposite operator="in" in2="blur-2"/>
      <feComposite in="SourceGraphic"/>
    </filter>
  </defs>
  <g id="Component_88_1" data-name="Component 88 – 1" transform="translate(9 6)">
    <g id="bg-2" data-name="bg">
      <g id="bg-3" data-name="bg">
        <g transform="matrix(1, 0, 0, 1, -9, -6)" filter="url(#bg)">
          <rect id="bg-4" data-name="bg" width="75" height="75" rx="8" transform="translate(9 6)" fill="url(#linear-gradient)"/>
        </g>
      </g>
    </g>
    <g transform="matrix(1, 0, 0, 1, -9, -6)" filter="url(#Icon_awesome-money-bill-wave)">
      <path id="Icon_awesome-money-bill-wave-2" data-name="Icon awesome-money-bill-wave" d="M43.675,3.8A21.115,21.115,0,0,0,35.49,2.25c-8.66,0-17.32,4.314-25.98,4.314A21.651,21.651,0,0,1,3,5.614,2.44,2.44,0,0,0,2.268,5.5,2.221,2.221,0,0,0,0,7.7V29.657A2.2,2.2,0,0,0,1.325,31.7,21.1,21.1,0,0,0,9.51,33.25c8.66,0,17.321-4.314,25.981-4.314A21.651,21.651,0,0,1,42,29.885a2.44,2.44,0,0,0,.728.112A2.221,2.221,0,0,0,45,27.8V5.843A2.2,2.2,0,0,0,43.675,3.8ZM3.375,9.185a24.838,24.838,0,0,0,4.41.618,4.487,4.487,0,0,1-4.41,3.566Zm0,19.721V25.6a4.466,4.466,0,0,1,4.48,4.249A17.221,17.221,0,0,1,3.375,28.906ZM22.5,24.393c-3.107,0-5.625-2.975-5.625-6.643s2.519-6.643,5.625-6.643,5.625,2.974,5.625,6.643S25.605,24.393,22.5,24.393Zm19.125,1.922a24.536,24.536,0,0,0-3.819-.584,4.464,4.464,0,0,1,3.819-3.41Zm0-16.338A4.447,4.447,0,0,1,37.7,5.718a17.132,17.132,0,0,1,3.924.876Z" transform="translate(24 25.97)" fill="#fff"/>
    </g>
  </g>
</svg>
