<svg id="Component_133_1" data-name="Component 133 – 1" xmlns="http://www.w3.org/2000/svg" xmlns:xlink="http://www.w3.org/1999/xlink" width="45" height="45" viewBox="0 0 45 45">
  <defs>
    <linearGradient id="linear-gradient" x2="1.02" y2="1.01" gradientUnits="objectBoundingBox">
      <stop offset="0" stop-color="#3023ae"/>
      <stop offset="1" stop-color="#4ba7b9"/>
    </linearGradient>
    <filter id="Icon_awesome-chart-pie" x="2.5" y="5" width="40" height="40" filterUnits="userSpaceOnUse">
      <feOffset dy="3" input="SourceAlpha"/>
      <feGaussianBlur stdDeviation="3" result="blur"/>
      <feFlood flood-opacity="0.161"/>
      <feComposite operator="in" in2="blur"/>
      <feComposite in="SourceGraphic"/>
    </filter>
  </defs>
  <path id="bg" d="M20,0H45V45H20A20,20,0,0,1,0,25V20A20,20,0,0,1,20,0Z" fill="url(#linear-gradient)"/>
  <g transform="matrix(1, 0, 0, 1, 0, 0)" filter="url(#Icon_awesome-chart-pie)">
    <path id="Icon_awesome-chart-pie-2" data-name="Icon awesome-chart-pie" d="M21.344,12.375h-9.6l6.391,6.79a.622.622,0,0,0,.9.029,10.516,10.516,0,0,0,2.957-6.053.674.674,0,0,0-.649-.767ZM20.7,9.591A10.048,10.048,0,0,0,11.679,0,.67.67,0,0,0,11,.7v9.615h9.049a.674.674,0,0,0,.655-.722ZM9.059,12.375V2.179a.664.664,0,0,0-.721-.69A10.147,10.147,0,0,0,.006,12.047C.182,17.553,4.644,22.069,9.828,22a9.255,9.255,0,0,0,5.47-1.892.711.711,0,0,0,.063-1.035Z" transform="translate(11.5 11)" fill="#fff"/>
  </g>
</svg>
