<svg id="Component_135_1" data-name="Component 135 – 1" xmlns="http://www.w3.org/2000/svg" xmlns:xlink="http://www.w3.org/1999/xlink" width="45" height="47" viewBox="0 0 45 47">
  <defs>
    <linearGradient id="linear-gradient" x2="1.02" y2="1.01" gradientUnits="objectBoundingBox">
      <stop offset="0" stop-color="#3023ae"/>
      <stop offset="1" stop-color="#4ba7b9"/>
    </linearGradient>
    <filter id="Ellipse_6" x="1.237" y="4" width="43" height="43" filterUnits="userSpaceOnUse">
      <feOffset dy="3" input="SourceAlpha"/>
      <feGaussianBlur stdDeviation="3" result="blur"/>
      <feFlood flood-opacity="0.161"/>
      <feComposite operator="in" in2="blur"/>
      <feComposite in="SourceGraphic"/>
    </filter>
    <linearGradient id="linear-gradient-2" x1="0.5" x2="0.5" y2="1" gradientUnits="objectBoundingBox">
      <stop offset="0" stop-color="#384bb1"/>
      <stop offset="1" stop-color="#49a0b8"/>
    </linearGradient>
    <filter id="Icon_awesome-plus" x="15.642" y="11.74" width="10.811" height="10.518" filterUnits="userSpaceOnUse">
      <feOffset dy="2" input="SourceAlpha"/>
      <feGaussianBlur stdDeviation="0.5" result="blur-2"/>
      <feFlood flood-opacity="0.161"/>
      <feComposite operator="in" in2="blur-2"/>
      <feComposite in="SourceGraphic"/>
    </filter>
    <linearGradient id="linear-gradient-3" x1="0.069" y1="0.5" x2="1" y2="0.5" gradientUnits="objectBoundingBox">
      <stop offset="0" stop-color="#384eb1"/>
      <stop offset="1" stop-color="#489db7"/>
    </linearGradient>
    <filter id="Icon_awesome-minus" x="23.453" y="18.758" width="10.401" height="5.995" filterUnits="userSpaceOnUse">
      <feOffset dy="2" input="SourceAlpha"/>
      <feGaussianBlur stdDeviation="0.5" result="blur-3"/>
      <feFlood flood-opacity="0.161"/>
      <feComposite operator="in" in2="blur-3"/>
      <feComposite in="SourceGraphic"/>
    </filter>
    <filter id="Icon_awesome-plus-2" x="21.163" y="22.253" width="13.486" height="13.986" filterUnits="userSpaceOnUse">
      <feOffset dy="2" input="SourceAlpha"/>
      <feGaussianBlur stdDeviation="0.5" result="blur-4"/>
      <feFlood flood-opacity="0.161"/>
      <feComposite operator="in" in2="blur-4"/>
      <feComposite in="SourceGraphic"/>
    </filter>
    <filter id="Union_2" x="12.847" y="20" width="10.402" height="13.999" filterUnits="userSpaceOnUse">
      <feOffset dy="2" input="SourceAlpha"/>
      <feGaussianBlur stdDeviation="0.5" result="blur-5"/>
      <feFlood flood-opacity="0.161"/>
      <feComposite operator="in" in2="blur-5"/>
      <feComposite in="SourceGraphic"/>
    </filter>
  </defs>
  <path id="bg" d="M20,0H45V45H20A20,20,0,0,1,0,25V20A20,20,0,0,1,20,0Z" fill="url(#linear-gradient)"/>
  <g id="Component_58_3" data-name="Component 58 – 3" transform="translate(10.237 10)">
    <g id="Component_134_1" data-name="Component 134 – 1">
      <g transform="matrix(1, 0, 0, 1, -10.24, -10)" filter="url(#Ellipse_6)">
        <circle id="Ellipse_6-2" data-name="Ellipse 6" cx="12.5" cy="12.5" r="12.5" transform="translate(10.24 10)" fill="#fff"/>
      </g>
    </g>
    <g transform="matrix(1, 0, 0, 1, -10.24, -10)" filter="url(#Icon_awesome-plus)">
      <path id="Icon_awesome-plus-3" data-name="Icon awesome-plus" d="M7.253,5.007H4.743V2.751a.532.532,0,0,0-.558-.5H3.627a.532.532,0,0,0-.558.5V5.007H.558a.532.532,0,0,0-.558.5v.5a.532.532,0,0,0,.558.5H3.069V8.767a.532.532,0,0,0,.558.5h.558a.532.532,0,0,0,.558-.5V6.511H7.253a.532.532,0,0,0,.558-.5v-.5A.532.532,0,0,0,7.253,5.007Z" transform="translate(17.14 9.49)" fill="url(#linear-gradient-2)"/>
    </g>
    <g transform="matrix(1, 0, 0, 1, -10.24, -10)" filter="url(#Icon_awesome-minus)">
      <path id="Icon_awesome-minus-2" data-name="Icon awesome-minus" d="M6.872,14.625H.529C.237,14.625,0,15,0,15.457v.832c0,.459.237.832.529.832H6.872c.292,0,.529-.372.529-.832v-.832C7.4,15,7.164,14.625,6.872,14.625Z" transform="translate(24.95 4.13)" fill="url(#linear-gradient-3)"/>
    </g>
    <g transform="matrix(1, 0, 0, 1, -10.24, -10)" filter="url(#Icon_awesome-plus-2)">
      <path id="Icon_awesome-plus-4" data-name="Icon awesome-plus" d="M7.253,5.007H4.743V2.751a.532.532,0,0,0-.558-.5H3.627a.532.532,0,0,0-.558.5V5.007H.558a.532.532,0,0,0-.558.5v.5a.532.532,0,0,0,.558.5H3.069V8.767a.532.532,0,0,0,.558.5h.558a.532.532,0,0,0,.558-.5V6.511H7.253a.532.532,0,0,0,.558-.5v-.5A.532.532,0,0,0,7.253,5.007Z" transform="translate(29.22 20.66) rotate(45)" fill="url(#linear-gradient-2)"/>
    </g>
    <g transform="matrix(1, 0, 0, 1, -10.24, -10)" filter="url(#Union_2)">
      <path id="Union_2-2" data-name="Union 2" d="M-12.11-1309.25a1.751,1.751,0,0,1,1.75-1.75,1.751,1.751,0,0,1,1.75,1.75,1.75,1.75,0,0,1-1.75,1.75A1.75,1.75,0,0,1-12.11-1309.25Zm-1.361-2.5c-.293,0-.529-.373-.529-.832v-.832c0-.459.237-.832.529-.832h6.343c.292,0,.529.373.529.832v.832c0,.459-.238.832-.529.832Zm1.361-4.5a1.75,1.75,0,0,1,1.75-1.75,1.75,1.75,0,0,1,1.75,1.75,1.75,1.75,0,0,1-1.75,1.75A1.75,1.75,0,0,1-12.11-1316.25Z" transform="translate(28.35 1338)" fill="url(#linear-gradient-3)"/>
    </g>
  </g>
</svg>
