<svg id="Component_138_1" data-name="Component 138 – 1" xmlns="http://www.w3.org/2000/svg" xmlns:xlink="http://www.w3.org/1999/xlink" width="45" height="45" viewBox="0 0 45 45">
  <defs>
    <linearGradient id="linear-gradient" x2="1.02" y2="1.01" gradientUnits="objectBoundingBox">
      <stop offset="0" stop-color="#3023ae"/>
      <stop offset="1" stop-color="#4ba7b9"/>
    </linearGradient>
    <filter id="Icon_awesome-circle-notch" x="2.5" y="5" width="40" height="40" filterUnits="userSpaceOnUse">
      <feOffset dy="3" input="SourceAlpha"/>
      <feGaussianBlur stdDeviation="3" result="blur"/>
      <feFlood flood-opacity="0.161"/>
      <feComposite operator="in" in2="blur"/>
      <feComposite in="SourceGraphic"/>
    </filter>
  </defs>
  <path id="bg" d="M20,0H45V45H20A20,20,0,0,1,0,25V20A20,20,0,0,1,20,0Z" fill="url(#linear-gradient)"/>
  <g transform="matrix(1, 0, 0, 1, 0, 0)" filter="url(#Icon_awesome-circle-notch)">
    <path id="Icon_awesome-circle-notch-2" data-name="Icon awesome-circle-notch" d="M12.982,2.137v.75a1.078,1.078,0,0,0,.784,1.038,8.294,8.294,0,0,1-2.2,16.252,8.294,8.294,0,0,1-2.2-16.252,1.078,1.078,0,0,0,.785-1.038V2.138A1.069,1.069,0,0,0,8.81,1.092,11.136,11.136,0,0,0,.563,11.958a11.055,11.055,0,0,0,11.024,11.1A11.08,11.08,0,0,0,22.562,11.9,11.134,11.134,0,0,0,14.3,1.089,1.066,1.066,0,0,0,12.982,2.137Z" transform="translate(10.94 9.94)" fill="#fff"/>
  </g>
</svg>
