<?xml version="1.0" encoding="UTF-8" standalone="no"?>
<!-- Created with Inkscape (http://www.inkscape.org/) -->

<svg
   width="183.006"
   height="145.436"
   viewBox="0 0 48.420338 38.479945"
   version="1.1"
   id="svg5"
   xmlns:xlink="http://www.w3.org/1999/xlink"
   xmlns="http://www.w3.org/2000/svg"
   xmlns:svg="http://www.w3.org/2000/svg">
  <defs
     id="defs2">
    <linearGradient
       id="linearGradient1996">
      <stop
         style="stop-color:#3128af;stop-opacity:1"
         offset="0"
         id="stop1992" />
      <stop
         style="stop-color:#499fb8;stop-opacity:1"
         offset="1"
         id="stop1994" />
    </linearGradient>
    <linearGradient
       xlink:href="#linearGradient1996"
       id="linearGradient1998"
       x1="2.7098541"
       y1="15.446168"
       x2="48.420444"
       y2="19.239964"
       gradientUnits="userSpaceOnUse" />
  </defs>
  <g
     id="layer1">
    <rect
       style="fill:url(#linearGradient1998);stroke:none;stroke-width:1.32292;stroke-linecap:square;stroke-dashoffset:52.9134;fill-opacity:1"
       id="rect3768"
       width="48.420444"
       height="38.479927"
       x="0"
       y="0"
       ry="6.7746348" />
    <g
       aria-label="Ic"
       id="text1948"
       style="font-size:19.7244px;line-height:1.25;font-family:'Arial Rounded MT Bold';-inkscape-font-specification:'Arial Rounded MT Bold, Normal';fill:#ffffff;stroke-width:0.264582">
      <path
         d="M 16.558348,24.797082 V 13.673214 q 0,-0.866795 0.394873,-1.300193 0.394874,-0.433397 1.020892,-0.433397 0.645281,0 1.040154,0.433397 0.404504,0.423767 0.404504,1.300193 v 11.123868 q 0,0.876426 -0.404504,1.309823 -0.394873,0.433398 -1.040154,0.433398 -0.616387,0 -1.020892,-0.433398 -0.394873,-0.443028 -0.394873,-1.309823 z"
         id="path2460" />
      <path
         d="m 31.862094,23.285006 q 0,0.491184 -0.298563,1.049785 -0.288932,0.558601 -0.895688,1.069047 -0.597126,0.500815 -1.512076,0.809009 -0.91495,0.308193 -2.061045,0.308193 -2.436657,0 -3.804267,-1.415765 -1.36761,-1.425396 -1.36761,-3.813897 0,-1.618017 0.626019,-2.860423 0.626018,-1.242406 1.810638,-1.91658 1.18462,-0.683805 2.83153,-0.683805 1.020892,0 1.868425,0.298563 0.857164,0.298562 1.444658,0.770484 0.597125,0.471922 0.905319,1.011261 0.317825,0.529708 0.317825,0.991998 0,0.471922 -0.356349,0.799378 -0.346718,0.327456 -0.847533,0.327456 -0.327456,0 -0.54897,-0.163728 -0.211883,-0.173359 -0.481553,-0.54897 -0.481552,-0.73196 -1.01126,-1.09794 -0.520077,-0.365981 -1.329086,-0.365981 -1.165358,0 -1.878056,0.914951 -0.712698,0.905319 -0.712698,2.484812 0,0.741591 0.18299,1.367609 0.18299,0.616388 0.529708,1.059416 0.346718,0.433398 0.837902,0.664543 0.491184,0.221514 1.078678,0.221514 0.789747,0 1.348348,-0.36598 0.568232,-0.36598 1.001629,-1.117202 0.240777,-0.443028 0.520077,-0.693436 0.279301,-0.250407 0.683805,-0.250407 0.481553,0 0.799378,0.36598 0.317825,0.36598 0.317825,0.780115 z"
         id="path2462" />
    </g>
  </g>
</svg>
