<svg id="Component_129_1" data-name="Component 129 – 1" xmlns="http://www.w3.org/2000/svg" xmlns:xlink="http://www.w3.org/1999/xlink" width="45" height="47.5" viewBox="0 0 45 47.5">
  <defs>
    <linearGradient id="linear-gradient" x2="1.02" y2="1.01" gradientUnits="objectBoundingBox">
      <stop offset="0" stop-color="#3023ae"/>
      <stop offset="1" stop-color="#4ba7b9"/>
    </linearGradient>
    <filter id="Icon_awesome-donate" x="0.764" y="4.5" width="43" height="43" filterUnits="userSpaceOnUse">
      <feOffset dy="3" input="SourceAlpha"/>
      <feGaussianBlur stdDeviation="3" result="blur"/>
      <feFlood flood-opacity="0.302"/>
      <feComposite operator="in" in2="blur"/>
      <feComposite in="SourceGraphic"/>
    </filter>
  </defs>
  <path id="bg" d="M20,0H45V45H20A20,20,0,0,1,0,25V20A20,20,0,0,1,20,0Z" fill="url(#linear-gradient)"/>
  <g transform="matrix(1, 0, 0, 1, 0, 0)" filter="url(#Icon_awesome-donate)">
    <path id="Icon_awesome-donate-2" data-name="Icon awesome-donate" d="M12.5,20.313A10.156,10.156,0,1,0,2.344,10.156,10.155,10.155,0,0,0,12.5,20.313ZM11.416,4.756v-.82a.809.809,0,0,1,.811-.811h.542a.809.809,0,0,1,.811.811v.83a3.849,3.849,0,0,1,2.1.752.547.547,0,0,1,.059.835l-.8.757a.551.551,0,0,1-.684.049,1.607,1.607,0,0,0-.869-.249h-1.9a.849.849,0,0,0-.8.894.882.882,0,0,0,.591.859l3.042.913A3.059,3.059,0,0,1,16.46,12.51a3.011,3.011,0,0,1-2.886,3.047v.82a.809.809,0,0,1-.811.811h-.542a.809.809,0,0,1-.811-.811v-.83a3.849,3.849,0,0,1-2.1-.752.547.547,0,0,1-.059-.835l.8-.757a.551.551,0,0,1,.684-.049,1.607,1.607,0,0,0,.869.249h1.9a.849.849,0,0,0,.8-.894.882.882,0,0,0-.591-.859l-3.042-.913A3.059,3.059,0,0,1,8.53,7.8a3.014,3.014,0,0,1,2.886-3.047ZM23.438,17.188H21.851a11.834,11.834,0,0,1-3.564,3.125H21.4a.436.436,0,0,1,.469.391v.781a.436.436,0,0,1-.469.391H3.594a.436.436,0,0,1-.469-.391V20.7a.436.436,0,0,1,.469-.391H6.709a11.893,11.893,0,0,1-3.564-3.125H1.563A1.561,1.561,0,0,0,0,18.75v4.688A1.561,1.561,0,0,0,1.563,25H23.438A1.561,1.561,0,0,0,25,23.438V18.75A1.561,1.561,0,0,0,23.438,17.188Z" transform="translate(9.76 10.5)" fill="#fff"/>
  </g>
</svg>
