<svg xmlns="http://www.w3.org/2000/svg" xmlns:xlink="http://www.w3.org/1999/xlink" width="93" height="93" viewBox="0 0 93 93">
  <defs>
    <linearGradient id="linear-gradient" x2="1.02" y2="1.01" gradientUnits="objectBoundingBox">
      <stop offset="0" stop-color="#3023ae"/>
      <stop offset="1" stop-color="#4ba7b9"/>
    </linearGradient>
    <filter id="bg" x="0" y="0" width="93" height="93" filterUnits="userSpaceOnUse">
      <feOffset dy="3" input="SourceAlpha"/>
      <feGaussianBlur stdDeviation="3" result="blur"/>
      <feFlood flood-opacity="0.31"/>
      <feComposite operator="in" in2="blur"/>
      <feComposite in="SourceGraphic"/>
    </filter>
    <filter id="Icon_metro-calculator" x="20" y="22" width="53" height="49" filterUnits="userSpaceOnUse">
      <feOffset dy="3" input="SourceAlpha"/>
      <feGaussianBlur stdDeviation="3" result="blur-2"/>
      <feFlood flood-opacity="0.302"/>
      <feComposite operator="in" in2="blur-2"/>
      <feComposite in="SourceGraphic"/>
    </filter>
  </defs>
  <g id="Component_126_1" data-name="Component 126 – 1" transform="translate(9 6)">
    <g transform="matrix(1, 0, 0, 1, -9, -6)" filter="url(#bg)">
      <rect id="bg-2" data-name="bg" width="75" height="75" rx="8" transform="translate(9 6)" fill="url(#linear-gradient)"/>
    </g>
    <g transform="matrix(1, 0, 0, 1, -9, -6)" filter="url(#Icon_metro-calculator)">
      <path id="Icon_metro-calculator-2" data-name="Icon metro-calculator" d="M16.571,3.856H4.9A2.219,2.219,0,0,0,2.571,5.923V16.256A2.219,2.219,0,0,0,4.9,18.323H16.571A2.219,2.219,0,0,0,18.9,16.256V5.923A2.219,2.219,0,0,0,16.571,3.856Zm0,8.267H4.9V10.056H16.571ZM35.237,3.856H23.571a2.219,2.219,0,0,0-2.333,2.067V32.789a2.219,2.219,0,0,0,2.333,2.067H35.237a2.219,2.219,0,0,0,2.333-2.067V5.923A2.219,2.219,0,0,0,35.237,3.856Zm0,18.6H23.571V20.389H35.237Zm0-6.2H23.571V14.189H35.237ZM16.571,20.389H4.9a2.219,2.219,0,0,0-2.333,2.067V32.789A2.219,2.219,0,0,0,4.9,34.856H16.571A2.219,2.219,0,0,0,18.9,32.789V22.456A2.219,2.219,0,0,0,16.571,20.389Zm0,8.267H11.9v4.133H9.571V28.656H4.9V26.589H9.571V22.456H11.9v4.133h4.667Z" transform="translate(26.43 24.14)" fill="#fff"/>
    </g>
  </g>
</svg>
