<svg id="Component_128_1" data-name="Component 128 – 1" xmlns="http://www.w3.org/2000/svg" xmlns:xlink="http://www.w3.org/1999/xlink" width="45" height="45" viewBox="0 0 45 45">
  <defs>
    <linearGradient id="linear-gradient" x2="1.02" y2="1.01" gradientUnits="objectBoundingBox">
      <stop offset="0" stop-color="#3023ae"/>
      <stop offset="1" stop-color="#4ba7b9"/>
    </linearGradient>
    <filter id="Icon_material-payment" x="1" y="6" width="44" height="38" filterUnits="userSpaceOnUse">
      <feOffset dy="3" input="SourceAlpha"/>
      <feGaussianBlur stdDeviation="3" result="blur"/>
      <feFlood flood-opacity="0.302"/>
      <feComposite operator="in" in2="blur"/>
      <feComposite in="SourceGraphic"/>
    </filter>
  </defs>
  <path id="bg" d="M20,0H45V45H20A20,20,0,0,1,0,25V20A20,20,0,0,1,20,0Z" fill="url(#linear-gradient)"/>
  <g transform="matrix(1, 0, 0, 1, 0, 0)" filter="url(#Icon_material-payment)">
    <path id="Icon_material-payment-2" data-name="Icon material-payment" d="M26.4,6H5.6A2.531,2.531,0,0,0,3.013,8.5L3,23.5A2.543,2.543,0,0,0,5.6,26H26.4A2.543,2.543,0,0,0,29,23.5V8.5A2.543,2.543,0,0,0,26.4,6Zm0,17.5H5.6V16H26.4Zm0-12.5H5.6V8.5H26.4Z" transform="translate(7 6)" fill="#fff"/>
  </g>
</svg>
