<svg id="Component_130_1" data-name="Component 130 – 1" xmlns="http://www.w3.org/2000/svg" xmlns:xlink="http://www.w3.org/1999/xlink" width="45" height="47" viewBox="0 0 45 47">
  <defs>
    <linearGradient id="linear-gradient" x2="1.02" y2="1.01" gradientUnits="objectBoundingBox">
      <stop offset="0" stop-color="#3023ae"/>
      <stop offset="1" stop-color="#4ba7b9"/>
    </linearGradient>
    <filter id="Icon_map-real-estate-agency" x="1.5" y="4" width="43" height="43" filterUnits="userSpaceOnUse">
      <feOffset dy="3" input="SourceAlpha"/>
      <feGaussianBlur stdDeviation="3" result="blur"/>
      <feFlood flood-opacity="0.302"/>
      <feComposite operator="in" in2="blur"/>
      <feComposite in="SourceGraphic"/>
    </filter>
  </defs>
  <path id="bg" d="M20,0H45V45H20A20,20,0,0,1,0,25V20A20,20,0,0,1,20,0Z" fill="url(#linear-gradient)"/>
  <g transform="matrix(1, 0, 0, 1, 0, 0)" filter="url(#Icon_map-real-estate-agency)">
    <path id="Icon_map-real-estate-agency-2" data-name="Icon map-real-estate-agency" d="M8.983,20.374H27.128V7.062H8.983ZM18.2,8.387l6.542,4.9H23.1v5.878H19.265V15.015h-2.42v4.149H13.217V13.286h-1.69ZM6.967,3.778V.733H2.935v25H6.967V5.334H27.935V3.778Z" transform="translate(7.57 9.27)" fill="#fff"/>
  </g>
</svg>
