<svg xmlns="http://www.w3.org/2000/svg" xmlns:xlink="http://www.w3.org/1999/xlink" width="93" height="93" viewBox="0 0 93 93">
  <defs>
    <linearGradient id="linear-gradient" x2="1.02" y2="1.01" gradientUnits="objectBoundingBox">
      <stop offset="0" stop-color="#3023ae"/>
      <stop offset="1" stop-color="#4ba7b9"/>
    </linearGradient>
    <filter id="bg" x="0" y="0" width="93" height="93" filterUnits="userSpaceOnUse">
      <feOffset dy="3" input="SourceAlpha"/>
      <feGaussianBlur stdDeviation="3" result="blur"/>
      <feFlood flood-opacity="0.31"/>
      <feComposite operator="in" in2="blur"/>
      <feComposite in="SourceGraphic"/>
    </filter>
    <filter id="Path_7" x="22" y="46.25" width="37.125" height="20.25" filterUnits="userSpaceOnUse">
      <feOffset dy="3" input="SourceAlpha"/>
      <feGaussianBlur stdDeviation="3" result="blur-2"/>
      <feFlood flood-opacity="0.302"/>
      <feComposite operator="in" in2="blur-2"/>
      <feComposite in="SourceGraphic"/>
    </filter>
    <filter id="Path_8" x="47.375" y="46.25" width="23.625" height="20.25" filterUnits="userSpaceOnUse">
      <feOffset dy="3" input="SourceAlpha"/>
      <feGaussianBlur stdDeviation="3" result="blur-3"/>
      <feFlood flood-opacity="0.302"/>
      <feComposite operator="in" in2="blur-3"/>
      <feComposite in="SourceGraphic"/>
    </filter>
    <filter id="Path_9" x="41.875" y="41.75" width="22.5" height="29.25" filterUnits="userSpaceOnUse">
      <feOffset dy="3" input="SourceAlpha"/>
      <feGaussianBlur stdDeviation="3" result="blur-4"/>
      <feFlood flood-opacity="0.302"/>
      <feComposite operator="in" in2="blur-4"/>
      <feComposite in="SourceGraphic"/>
    </filter>
    <filter id="Path_10" x="22" y="36.375" width="23.625" height="20.25" filterUnits="userSpaceOnUse">
      <feOffset dy="3" input="SourceAlpha"/>
      <feGaussianBlur stdDeviation="3" result="blur-5"/>
      <feFlood flood-opacity="0.302"/>
      <feComposite operator="in" in2="blur-5"/>
      <feComposite in="SourceGraphic"/>
    </filter>
    <filter id="Path_11" x="33.875" y="36.375" width="37.125" height="20.25" filterUnits="userSpaceOnUse">
      <feOffset dy="3" input="SourceAlpha"/>
      <feGaussianBlur stdDeviation="3" result="blur-6"/>
      <feFlood flood-opacity="0.302"/>
      <feComposite operator="in" in2="blur-6"/>
      <feComposite in="SourceGraphic"/>
    </filter>
    <filter id="Path_12" x="28.625" y="31.875" width="22.5" height="29.25" filterUnits="userSpaceOnUse">
      <feOffset dy="3" input="SourceAlpha"/>
      <feGaussianBlur stdDeviation="3" result="blur-7"/>
      <feFlood flood-opacity="0.302"/>
      <feComposite operator="in" in2="blur-7"/>
      <feComposite in="SourceGraphic"/>
    </filter>
    <filter id="Path_13" x="22" y="26.5" width="37.125" height="20.25" filterUnits="userSpaceOnUse">
      <feOffset dy="3" input="SourceAlpha"/>
      <feGaussianBlur stdDeviation="3" result="blur-8"/>
      <feFlood flood-opacity="0.302"/>
      <feComposite operator="in" in2="blur-8"/>
      <feComposite in="SourceGraphic"/>
    </filter>
    <filter id="Path_14" x="47.375" y="26.5" width="23.625" height="20.25" filterUnits="userSpaceOnUse">
      <feOffset dy="3" input="SourceAlpha"/>
      <feGaussianBlur stdDeviation="3" result="blur-9"/>
      <feFlood flood-opacity="0.302"/>
      <feComposite operator="in" in2="blur-9"/>
      <feComposite in="SourceGraphic"/>
    </filter>
    <filter id="Path_15" x="41.875" y="22" width="22.5" height="29.25" filterUnits="userSpaceOnUse">
      <feOffset dy="3" input="SourceAlpha"/>
      <feGaussianBlur stdDeviation="3" result="blur-10"/>
      <feFlood flood-opacity="0.302"/>
      <feComposite operator="in" in2="blur-10"/>
      <feComposite in="SourceGraphic"/>
    </filter>
  </defs>
  <g id="Component_127_1" data-name="Component 127 – 1" transform="translate(9 6)">
    <g transform="matrix(1, 0, 0, 1, -9, -6)" filter="url(#bg)">
      <path id="bg-2" data-name="bg" d="M8,0H67a8,8,0,0,1,8,8V67a8,8,0,0,1-8,8H8a8,8,0,0,1-8-8V8A8,8,0,0,1,8,0Z" transform="translate(9 6)" fill="url(#linear-gradient)"/>
    </g>
    <g id="Icon_ionic-md-options" data-name="Icon ionic-md-options" transform="translate(22 22)">
      <g id="Group_1" data-name="Group 1" transform="translate(0 19.75)">
        <g transform="matrix(1, 0, 0, 1, -31, -47.75)" filter="url(#Path_7)">
          <path id="Path_7-2" data-name="Path 7" d="M2.25,27H21.375v2.25H2.25Z" transform="translate(28.75 25.25)" fill="#fff"/>
        </g>
        <g transform="matrix(1, 0, 0, 1, -31, -47.75)" filter="url(#Path_8)">
          <path id="Path_8-2" data-name="Path 8" d="M28.125,27H33.75v2.25H28.125Z" transform="translate(28.25 25.25)" fill="#fff"/>
        </g>
        <g transform="matrix(1, 0, 0, 1, -31, -47.75)" filter="url(#Path_9)">
          <path id="Path_9-2" data-name="Path 9" d="M27,31.465a2.268,2.268,0,0,1-2.25,2.285h0a2.268,2.268,0,0,1-2.25-2.285v-6.68A2.268,2.268,0,0,1,24.75,22.5h0A2.268,2.268,0,0,1,27,24.785Z" transform="translate(28.38 25.25)" fill="#fff"/>
        </g>
      </g>
      <g id="Group_2" data-name="Group 2" transform="translate(0 9.875)">
        <g transform="matrix(1, 0, 0, 1, -31, -37.88)" filter="url(#Path_10)">
          <path id="Path_10-2" data-name="Path 10" d="M2.25,16.875H7.875v2.25H2.25Z" transform="translate(28.75 25.5)" fill="#fff"/>
        </g>
        <g transform="matrix(1, 0, 0, 1, -31, -37.88)" filter="url(#Path_11)">
          <path id="Path_11-2" data-name="Path 11" d="M14.625,16.875H33.75v2.25H14.625Z" transform="translate(28.25 25.5)" fill="#fff"/>
        </g>
        <g transform="matrix(1, 0, 0, 1, -31, -37.88)" filter="url(#Path_12)">
          <path id="Path_12-2" data-name="Path 12" d="M13.5,21.34a2.268,2.268,0,0,1-2.25,2.285h0A2.268,2.268,0,0,1,9,21.34V14.66a2.268,2.268,0,0,1,2.25-2.285h0A2.268,2.268,0,0,1,13.5,14.66Z" transform="translate(28.63 25.5)" fill="#fff"/>
        </g>
      </g>
      <g id="Group_3" data-name="Group 3">
        <g transform="matrix(1, 0, 0, 1, -31, -28)" filter="url(#Path_13)">
          <path id="Path_13-2" data-name="Path 13" d="M2.25,6.75H21.375V9H2.25Z" transform="translate(28.75 25.75)" fill="#fff"/>
        </g>
        <g transform="matrix(1, 0, 0, 1, -31, -28)" filter="url(#Path_14)">
          <path id="Path_14-2" data-name="Path 14" d="M28.125,6.75H33.75V9H28.125Z" transform="translate(28.25 25.75)" fill="#fff"/>
        </g>
        <g transform="matrix(1, 0, 0, 1, -31, -28)" filter="url(#Path_15)">
          <path id="Path_15-2" data-name="Path 15" d="M27,11.215A2.268,2.268,0,0,1,24.75,13.5h0a2.268,2.268,0,0,1-2.25-2.285V4.535A2.268,2.268,0,0,1,24.75,2.25h0A2.268,2.268,0,0,1,27,4.535Z" transform="translate(28.38 25.75)" fill="#fff"/>
        </g>
      </g>
    </g>
  </g>
</svg>
