<svg id="Component_131_1" data-name="Component 131 – 1" xmlns="http://www.w3.org/2000/svg" xmlns:xlink="http://www.w3.org/1999/xlink" width="45" height="47" viewBox="0 0 45 47">
  <defs>
    <linearGradient id="linear-gradient" x2="1.02" y2="1.01" gradientUnits="objectBoundingBox">
      <stop offset="0" stop-color="#3023ae"/>
      <stop offset="1" stop-color="#4ba7b9"/>
    </linearGradient>
    <filter id="Icon_awesome-business-time" x="1" y="4" width="43" height="43" filterUnits="userSpaceOnUse">
      <feOffset dy="3" input="SourceAlpha"/>
      <feGaussianBlur stdDeviation="3" result="blur"/>
      <feFlood flood-opacity="0.302"/>
      <feComposite operator="in" in2="blur"/>
      <feComposite in="SourceGraphic"/>
    </filter>
  </defs>
  <path id="bg" d="M20,0H45V45H20A20,20,0,0,1,0,25V20A20,20,0,0,1,20,0Z" fill="url(#linear-gradient)"/>
  <g transform="matrix(1, 0, 0, 1, 0, 0)" filter="url(#Icon_awesome-business-time)">
    <path id="Icon_awesome-business-time-2" data-name="Icon awesome-business-time" d="M19.375,10.938c-3.109,0-5.625,3.145-5.625,7.031S16.266,25,19.375,25,25,21.855,25,17.969,22.484,10.938,19.375,10.938Zm2.5,7.338a.436.436,0,0,1-.379.474H19.13a.436.436,0,0,1-.379-.474V14.537a.436.436,0,0,1,.379-.474h.491a.436.436,0,0,1,.379.474v2.65h1.5a.436.436,0,0,1,.379.474Zm-2.5-8.9a5.523,5.523,0,0,1,.625.04V7.031a2.2,2.2,0,0,0-1.875-2.344H15V2.344A2.2,2.2,0,0,0,13.125,0H6.875A2.2,2.2,0,0,0,5,2.344V4.688H1.875A2.2,2.2,0,0,0,0,7.031v3.906H15.434A5.952,5.952,0,0,1,19.375,9.375ZM12.5,4.688h-5V3.125h5Zm.266,10.938H8.125a.716.716,0,0,1-.625-.781V12.5H0v7.031a2.2,2.2,0,0,0,1.875,2.344H13.259a10.294,10.294,0,0,1-.759-3.906A10.565,10.565,0,0,1,12.766,15.625Z" transform="translate(10 10)" fill="#fff"/>
  </g>
</svg>
