<svg id="Component_132_1" data-name="Component 132 – 1" xmlns="http://www.w3.org/2000/svg" xmlns:xlink="http://www.w3.org/1999/xlink" width="45" height="48" viewBox="0 0 45 48">
  <defs>
    <linearGradient id="linear-gradient" x2="1.02" y2="1.01" gradientUnits="objectBoundingBox">
      <stop offset="0" stop-color="#3023ae"/>
      <stop offset="1" stop-color="#4ba7b9"/>
    </linearGradient>
    <filter id="Icon_awesome-shopping-cart" x="1" y="5" width="43" height="43" filterUnits="userSpaceOnUse">
      <feOffset dy="3" input="SourceAlpha"/>
      <feGaussianBlur stdDeviation="3" result="blur"/>
      <feFlood flood-opacity="0.302"/>
      <feComposite operator="in" in2="blur"/>
      <feComposite in="SourceGraphic"/>
    </filter>
  </defs>
  <path id="bg" d="M20,0H45V45H20A20,20,0,0,1,0,25V20A20,20,0,0,1,20,0Z" fill="url(#linear-gradient)"/>
  <g transform="matrix(1, 0, 0, 1, 0, 0)" filter="url(#Icon_awesome-shopping-cart)">
    <path id="Icon_awesome-shopping-cart-2" data-name="Icon awesome-shopping-cart" d="M22.922,14.713,24.974,4.557a1.145,1.145,0,0,0-1.016-1.432H6.91L6.512.937A1.08,1.08,0,0,0,5.492,0H1.042A1.113,1.113,0,0,0,0,1.172v.781A1.113,1.113,0,0,0,1.042,3.125H4.075L7.124,19.894A2.808,2.808,0,0,0,5.9,22.266,2.6,2.6,0,0,0,8.333,25a2.6,2.6,0,0,0,2.431-2.734,2.9,2.9,0,0,0-.73-1.953h9.1a2.9,2.9,0,0,0-.73,1.953A2.6,2.6,0,0,0,20.833,25a2.6,2.6,0,0,0,2.431-2.734A2.781,2.781,0,0,0,21.893,19.8l.239-1.185a1.145,1.145,0,0,0-1.016-1.432H9.467l-.284-1.563H21.906A1.076,1.076,0,0,0,22.922,14.713Z" transform="translate(10 11)" fill="#fff"/>
  </g>
</svg>
