<svg xmlns="http://www.w3.org/2000/svg" xmlns:xlink="http://www.w3.org/1999/xlink" width="53" height="53" viewBox="0 0 53 53">
  <defs>
    <linearGradient id="linear-gradient" x2="1.02" y2="1.01" gradientUnits="objectBoundingBox">
      <stop offset="0" stop-color="#3023ae"/>
      <stop offset="1" stop-color="#4ba7b9"/>
    </linearGradient>
    <filter id="Icon_awesome-map-marked" x="0" y="3" width="53" height="50" filterUnits="userSpaceOnUse">
      <feOffset dy="3" input="SourceAlpha"/>
      <feGaussianBlur stdDeviation="3" result="blur"/>
      <feFlood flood-opacity="0.161"/>
      <feComposite operator="in" in2="blur"/>
      <feComposite in="SourceGraphic"/>
    </filter>
  </defs>
  <g id="Component_145_1" data-name="Component 145 – 1" transform="translate(1)">
    <path id="bg" d="M8,0H42a8,8,0,0,1,8,8V42a8,8,0,0,1-8,8H8a8,8,0,0,1-8-8V8A8,8,0,0,1,8,0Z" fill="url(#linear-gradient)"/>
    <g transform="matrix(1, 0, 0, 1, -1, 0)" filter="url(#Icon_awesome-map-marked)">
      <path id="Icon_awesome-map-marked-2" data-name="Icon awesome-map-marked" d="M17.5,0A7.768,7.768,0,0,0,9.844,7.875c0,3.516,5,9.925,6.921,12.251a.941.941,0,0,0,1.47,0c1.917-2.326,6.921-8.735,6.921-12.251A7.768,7.768,0,0,0,17.5,0ZM1.223,13.5A2,2,0,0,0,0,15.354V31a.976.976,0,0,0,1.333.929L9.722,28V13.432a19.192,19.192,0,0,1-1.291-2.9ZM17.5,22.479a2.871,2.871,0,0,1-2.218-1.06c-1.195-1.45-2.465-3.1-3.615-4.8V28l11.667,4V16.625c-1.15,1.693-2.42,3.345-3.615,4.8A2.873,2.873,0,0,1,17.5,22.479ZM33.667,10.072,25.278,14V32l8.5-3.5A2,2,0,0,0,35,26.646V11A.976.976,0,0,0,33.667,10.072Z" transform="translate(9 9)" fill="#fff"/>
    </g>
  </g>
</svg>
