<svg id="Component_137_1" data-name="Component 137 – 1" xmlns="http://www.w3.org/2000/svg" xmlns:xlink="http://www.w3.org/1999/xlink" width="45" height="46.5" viewBox="0 0 45 46.5">
  <defs>
    <linearGradient id="linear-gradient" x2="1.02" y2="1.01" gradientUnits="objectBoundingBox">
      <stop offset="0" stop-color="#3023ae"/>
      <stop offset="1" stop-color="#4ba7b9"/>
    </linearGradient>
    <filter id="Path_128" x="8.403" y="5.5" width="22.5" height="41" filterUnits="userSpaceOnUse">
      <feOffset dy="3" input="SourceAlpha"/>
      <feGaussianBlur stdDeviation="3" result="blur"/>
      <feFlood flood-opacity="0.161"/>
      <feComposite operator="in" in2="blur"/>
      <feComposite in="SourceGraphic"/>
    </filter>
    <filter id="Path_129" x="3.237" y="17.25" width="22.5" height="29.25" filterUnits="userSpaceOnUse">
      <feOffset dy="3" input="SourceAlpha"/>
      <feGaussianBlur stdDeviation="3" result="blur-2"/>
      <feFlood flood-opacity="0.161"/>
      <feComposite operator="in" in2="blur-2"/>
      <feComposite in="SourceGraphic"/>
    </filter>
    <filter id="Path_130" x="13.57" y="12.75" width="22.5" height="33.75" filterUnits="userSpaceOnUse">
      <feOffset dy="3" input="SourceAlpha"/>
      <feGaussianBlur stdDeviation="3" result="blur-3"/>
      <feFlood flood-opacity="0.161"/>
      <feComposite operator="in" in2="blur-3"/>
      <feComposite in="SourceGraphic"/>
    </filter>
    <filter id="Path_131" x="18.737" y="6" width="22.5" height="40.5" filterUnits="userSpaceOnUse">
      <feOffset dy="3" input="SourceAlpha"/>
      <feGaussianBlur stdDeviation="3" result="blur-4"/>
      <feFlood flood-opacity="0.161"/>
      <feComposite operator="in" in2="blur-4"/>
      <feComposite in="SourceGraphic"/>
    </filter>
  </defs>
  <path id="bg" d="M20,0H45V45H20A20,20,0,0,1,0,25V20A20,20,0,0,1,20,0Z" fill="url(#linear-gradient)"/>
  <g id="Icon_ionic-ios-stats" data-name="Icon ionic-ios-stats" transform="translate(6.612 7)">
    <g transform="matrix(1, 0, 0, 1, -6.61, -7)" filter="url(#Path_128)">
      <path id="Path_128-2" data-name="Path 128" d="M12.938,27.5h3.375a.527.527,0,0,0,.563-.479V4.979a.527.527,0,0,0-.562-.479H12.938a.527.527,0,0,0-.562.479V27.021A.527.527,0,0,0,12.938,27.5Z" transform="translate(5.03 7)" fill="#fff"/>
    </g>
    <g transform="matrix(1, 0, 0, 1, -6.61, -7)" filter="url(#Path_129)">
      <path id="Path_129-2" data-name="Path 129" d="M6.188,31.5H9.563a.564.564,0,0,0,.563-.562V20.813a.564.564,0,0,0-.562-.562H6.188a.564.564,0,0,0-.562.563V30.938A.564.564,0,0,0,6.188,31.5Z" transform="translate(6.61 3)" fill="#fff"/>
    </g>
    <g transform="matrix(1, 0, 0, 1, -6.61, -7)" filter="url(#Path_130)">
      <path id="Path_130-2" data-name="Path 130" d="M19.695,31.5h3.361a.567.567,0,0,0,.57-.57V16.32a.567.567,0,0,0-.57-.57H19.695a.567.567,0,0,0-.57.57V30.93A.567.567,0,0,0,19.695,31.5Z" transform="translate(3.44 3)" fill="#fff"/>
    </g>
    <g transform="matrix(1, 0, 0, 1, -6.61, -7)" filter="url(#Path_131)">
      <path id="Path_131-2" data-name="Path 131" d="M25.875,9.57V30.93a.567.567,0,0,0,.57.57h3.361a.567.567,0,0,0,.57-.57V9.57a.567.567,0,0,0-.57-.57H26.445A.567.567,0,0,0,25.875,9.57Z" transform="translate(1.86 3)" fill="#fff"/>
    </g>
  </g>
</svg>
