<svg id="Component_144_1" data-name="Component 144 – 1" xmlns="http://www.w3.org/2000/svg" xmlns:xlink="http://www.w3.org/1999/xlink" width="45" height="46.436" viewBox="0 0 45 46.436">
  <defs>
    <linearGradient id="linear-gradient" x2="1.02" y2="1.01" gradientUnits="objectBoundingBox">
      <stop offset="0" stop-color="#3023ae"/>
      <stop offset="1" stop-color="#4ba7b9"/>
    </linearGradient>
    <filter id="Icon_awesome-exchange-alt" x="4" y="3.436" width="38" height="43" filterUnits="userSpaceOnUse">
      <feOffset dy="3" input="SourceAlpha"/>
      <feGaussianBlur stdDeviation="3" result="blur"/>
      <feFlood flood-opacity="0.302"/>
      <feComposite operator="in" in2="blur"/>
      <feComposite in="SourceGraphic"/>
    </filter>
  </defs>
  <path id="bg" d="M20,0H45V45H20A20,20,0,0,1,0,25V20A20,20,0,0,1,20,0Z" fill="url(#linear-gradient)"/>
  <g transform="matrix(1, 0, 0, 1, 0, 0)" filter="url(#Icon_awesome-exchange-alt)">
    <path id="Icon_awesome-exchange-alt-2" data-name="Icon awesome-exchange-alt" d="M0,10.937v-1c0-.828.42-1.5.937-1.5H15v-3c0-1.335,1.012-2,1.6-1.061l3.125,5a2.185,2.185,0,0,1,0,2.121l-3.125,5c-.587.938-1.6.28-1.6-1.061v-3H.938C.42,12.436,0,11.765,0,10.937Zm19.062,9.5H5v-3c0-1.332-1.01-2-1.6-1.061l-3.125,5a2.185,2.185,0,0,0,0,2.121l3.125,5c.587.939,1.6.279,1.6-1.061v-3H19.062c.518,0,.938-.671.938-1.5v-1C20,21.107,19.58,20.436,19.062,20.436Z" transform="translate(13 5.5)" fill="#fff"/>
  </g>
</svg>
