<svg xmlns="http://www.w3.org/2000/svg" xmlns:xlink="http://www.w3.org/1999/xlink" width="49" height="45" viewBox="0 0 49 45">
  <defs>
    <linearGradient id="linear-gradient" x2="1.02" y2="1.01" gradientUnits="objectBoundingBox">
      <stop offset="0" stop-color="#3023ae"/>
      <stop offset="1" stop-color="#4ba7b9"/>
    </linearGradient>
    <filter id="Path_136" x="8.188" y="14.312" width="32.625" height="21.375" filterUnits="userSpaceOnUse">
      <feOffset dy="3" input="SourceAlpha"/>
      <feGaussianBlur stdDeviation="3" result="blur"/>
      <feFlood flood-opacity="0.302"/>
      <feComposite operator="in" in2="blur"/>
      <feComposite in="SourceGraphic"/>
    </filter>
    <filter id="Path_137" x="23.828" y="7" width="21.094" height="36" filterUnits="userSpaceOnUse">
      <feOffset dy="3" input="SourceAlpha"/>
      <feGaussianBlur stdDeviation="3" result="blur-2"/>
      <feFlood flood-opacity="0.302"/>
      <feComposite operator="in" in2="blur-2"/>
      <feComposite in="SourceGraphic"/>
    </filter>
    <filter id="Path_138" x="28.188" y="11.5" width="20.813" height="27" filterUnits="userSpaceOnUse">
      <feOffset dy="3" input="SourceAlpha"/>
      <feGaussianBlur stdDeviation="3" result="blur-3"/>
      <feFlood flood-opacity="0.302"/>
      <feComposite operator="in" in2="blur-3"/>
      <feComposite in="SourceGraphic"/>
    </filter>
    <filter id="Path_139" x="4.078" y="7" width="21.094" height="36" filterUnits="userSpaceOnUse">
      <feOffset dy="3" input="SourceAlpha"/>
      <feGaussianBlur stdDeviation="3" result="blur-4"/>
      <feFlood flood-opacity="0.302"/>
      <feComposite operator="in" in2="blur-4"/>
      <feComposite in="SourceGraphic"/>
    </filter>
    <filter id="Path_140" x="0" y="11.5" width="20.813" height="27" filterUnits="userSpaceOnUse">
      <feOffset dy="3" input="SourceAlpha"/>
      <feGaussianBlur stdDeviation="3" result="blur-5"/>
      <feFlood flood-opacity="0.302"/>
      <feComposite operator="in" in2="blur-5"/>
      <feComposite in="SourceGraphic"/>
    </filter>
  </defs>
  <path id="bg" d="M20,0H45V45H20A20,20,0,0,1,0,25V20A20,20,0,0,1,20,0Z" transform="translate(1.763)" fill="url(#linear-gradient)"/>
  <g id="Icon_ionic-ios-fitness" data-name="Icon ionic-ios-fitness" transform="translate(6.75 4)">
    <g transform="matrix(1, 0, 0, 1, -6.75, -4)" filter="url(#Path_136)">
      <path id="Path_136-2" data-name="Path 136" d="M24.75,19.688H11.25a.564.564,0,0,1-.562-.562v-2.25a.564.564,0,0,1,.563-.562h13.5a.564.564,0,0,1,.563.563v2.25A.564.564,0,0,1,24.75,19.688Z" transform="translate(6.5 4)" fill="#fff"/>
    </g>
    <g transform="matrix(1, 0, 0, 1, -6.75, -4)" filter="url(#Path_137)">
      <path id="Path_137-2" data-name="Path 137" d="M26.578,25.453V10.547A1.551,1.551,0,0,1,28.125,9h0a1.551,1.551,0,0,1,1.547,1.547V25.453A1.551,1.551,0,0,1,28.125,27h0A1.551,1.551,0,0,1,26.578,25.453Z" transform="translate(6.25 4)" fill="#fff"/>
    </g>
    <g transform="matrix(1, 0, 0, 1, -6.75, -4)" filter="url(#Path_138)">
      <path id="Path_138-2" data-name="Path 138" d="M32.344,13.5H31.5a.564.564,0,0,0-.562.563v7.875a.564.564,0,0,0,.563.563h.844a1.41,1.41,0,0,0,1.406-1.406V14.906A1.41,1.41,0,0,0,32.344,13.5Z" transform="translate(6.25 4)" fill="#fff"/>
    </g>
    <g transform="matrix(1, 0, 0, 1, -6.75, -4)" filter="url(#Path_139)">
      <path id="Path_139-2" data-name="Path 139" d="M9.422,25.453V10.547A1.551,1.551,0,0,0,7.875,9h0a1.551,1.551,0,0,0-1.547,1.547V25.453A1.551,1.551,0,0,0,7.875,27h0A1.551,1.551,0,0,0,9.422,25.453Z" transform="translate(6.75 4)" fill="#fff"/>
    </g>
    <g transform="matrix(1, 0, 0, 1, -6.75, -4)" filter="url(#Path_140)">
      <path id="Path_140-2" data-name="Path 140" d="M4.5,13.5H3.656A1.41,1.41,0,0,0,2.25,14.906v6.188A1.41,1.41,0,0,0,3.656,22.5H4.5a.564.564,0,0,0,.563-.562V14.063A.564.564,0,0,0,4.5,13.5Z" transform="translate(6.75 4)" fill="#fff"/>
    </g>
  </g>
</svg>
