<svg xmlns="http://www.w3.org/2000/svg" xmlns:xlink="http://www.w3.org/1999/xlink" width="48" height="49" viewBox="0 0 48 49">
  <defs>
    <linearGradient id="linear-gradient" x2="1.02" y2="1.01" gradientUnits="objectBoundingBox">
      <stop offset="0" stop-color="#3023ae"/>
      <stop offset="1" stop-color="#4ba7b9"/>
    </linearGradient>
    <filter id="Icon_awesome-hospital-symbol" x="0" y="1" width="48" height="48" filterUnits="userSpaceOnUse">
      <feOffset dy="3" input="SourceAlpha"/>
      <feGaussianBlur stdDeviation="3" result="blur"/>
      <feFlood flood-opacity="0.161"/>
      <feComposite operator="in" in2="blur"/>
      <feComposite in="SourceGraphic"/>
    </filter>
  </defs>
  <g id="Component_139_1" data-name="Component 139 – 1" transform="translate(1.763)">
    <path id="bg" d="M20,0H45V45H20A20,20,0,0,1,0,25V20A20,20,0,0,1,20,0Z" fill="url(#linear-gradient)"/>
    <g transform="matrix(1, 0, 0, 1, -1.76, 0)" filter="url(#Icon_awesome-hospital-symbol)">
      <path id="Icon_awesome-hospital-symbol-2" data-name="Icon awesome-hospital-symbol" d="M15,0A15,15,0,1,0,30,15,15,15,0,0,0,15,0Zm6.563,22.031a.47.47,0,0,1-.469.469H18.281a.47.47,0,0,1-.469-.469V16.875H12.188v5.156a.47.47,0,0,1-.469.469H8.906a.47.47,0,0,1-.469-.469V7.969A.47.47,0,0,1,8.906,7.5h2.813a.47.47,0,0,1,.469.469v5.156h5.625V7.969a.47.47,0,0,1,.469-.469h2.813a.47.47,0,0,1,.469.469Z" transform="translate(9 7)" fill="#fff"/>
    </g>
  </g>
</svg>
