<svg xmlns="http://www.w3.org/2000/svg" xmlns:xlink="http://www.w3.org/1999/xlink" width="48" height="45.5" viewBox="0 0 48 45.5">
  <defs>
    <linearGradient id="linear-gradient" x2="1.02" y2="1.01" gradientUnits="objectBoundingBox">
      <stop offset="0" stop-color="#3023ae"/>
      <stop offset="1" stop-color="#4ba7b9"/>
    </linearGradient>
    <filter id="Icon_awesome-tape" x="0" y="7.5" width="48" height="38" filterUnits="userSpaceOnUse">
      <feOffset dy="3" input="SourceAlpha"/>
      <feGaussianBlur stdDeviation="3" result="blur"/>
      <feFlood flood-opacity="0.302"/>
      <feComposite operator="in" in2="blur"/>
      <feComposite in="SourceGraphic"/>
    </filter>
  </defs>
  <g id="Component_143_1" data-name="Component 143 – 1" transform="translate(1.747)">
    <path id="bg" d="M20,0H45V45H20A20,20,0,0,1,0,25V20A20,20,0,0,1,20,0Z" fill="url(#linear-gradient)"/>
    <g transform="matrix(1, 0, 0, 1, -1.75, 0)" filter="url(#Icon_awesome-tape)">
      <path id="Icon_awesome-tape-2" data-name="Icon awesome-tape" d="M10.5,9.393a2.934,2.934,0,0,0-3,2.857,2.934,2.934,0,0,0,3,2.857,2.934,2.934,0,0,0,3-2.857A2.934,2.934,0,0,0,10.5,9.393Zm18.75,10H17.841A9.75,9.75,0,0,0,21,12.25a10.26,10.26,0,0,0-10.5-10A10.26,10.26,0,0,0,0,12.25a10.26,10.26,0,0,0,10.5,10H29.25a.735.735,0,0,0,.75-.714V20.107A.735.735,0,0,0,29.25,19.393ZM10.5,16.536A4.4,4.4,0,0,1,6,12.25a4.4,4.4,0,0,1,4.5-4.286A4.4,4.4,0,0,1,15,12.25,4.4,4.4,0,0,1,10.5,16.536Z" transform="translate(9 11.25)" fill="#fff"/>
    </g>
  </g>
</svg>
