<svg xmlns="http://www.w3.org/2000/svg" xmlns:xlink="http://www.w3.org/1999/xlink" width="48" height="45" viewBox="0 0 48 45">
  <defs>
    <linearGradient id="linear-gradient" x2="1.02" y2="1.01" gradientUnits="objectBoundingBox">
      <stop offset="0" stop-color="#3023ae"/>
      <stop offset="1" stop-color="#4ba7b9"/>
    </linearGradient>
    <filter id="Icon_material-computer" x="0" y="6" width="48" height="38" filterUnits="userSpaceOnUse">
      <feOffset dy="3" input="SourceAlpha"/>
      <feGaussianBlur stdDeviation="3" result="blur"/>
      <feFlood flood-opacity="0.302"/>
      <feComposite operator="in" in2="blur"/>
      <feComposite in="SourceGraphic"/>
    </filter>
  </defs>
  <g id="Component_141_1" data-name="Component 141 – 1" transform="translate(0.258)">
    <path id="bg" d="M20,0H45V45H20A20,20,0,0,1,0,25V20A20,20,0,0,1,20,0Z" fill="url(#linear-gradient)"/>
    <g transform="matrix(1, 0, 0, 1, -0.26, 0)" filter="url(#Icon_material-computer)">
      <path id="Icon_material-computer-2" data-name="Icon material-computer" d="M25,23.5A2.5,2.5,0,0,0,27.487,21L27.5,8.5A2.507,2.507,0,0,0,25,6H5A2.507,2.507,0,0,0,2.5,8.5V21A2.507,2.507,0,0,0,5,23.5H0V26H30V23.5ZM5,8.5H25V21H5Z" transform="translate(9 6)" fill="#fff"/>
    </g>
  </g>
</svg>
