<svg xmlns="http://www.w3.org/2000/svg" xmlns:xlink="http://www.w3.org/1999/xlink" width="48" height="49" viewBox="0 0 48 49">
  <defs>
    <linearGradient id="linear-gradient" x2="1.02" y2="1.01" gradientUnits="objectBoundingBox">
      <stop offset="0" stop-color="#3023ae"/>
      <stop offset="1" stop-color="#4ba7b9"/>
    </linearGradient>
    <filter id="Icon_ionic-ios-time" x="0" y="1" width="48" height="48" filterUnits="userSpaceOnUse">
      <feOffset dy="3" input="SourceAlpha"/>
      <feGaussianBlur stdDeviation="3" result="blur"/>
      <feFlood flood-opacity="0.302"/>
      <feComposite operator="in" in2="blur"/>
      <feComposite in="SourceGraphic"/>
    </filter>
  </defs>
  <g id="Component_140_1" data-name="Component 140 – 1" transform="translate(1.763)">
    <path id="bg" d="M20,0H45V45H20A20,20,0,0,1,0,25V20A20,20,0,0,1,20,0Z" fill="url(#linear-gradient)"/>
    <g transform="matrix(1, 0, 0, 1, -1.76, 0)" filter="url(#Icon_ionic-ios-time)">
      <path id="Icon_ionic-ios-time-2" data-name="Icon ionic-ios-time" d="M18.375,3.375a15,15,0,1,0,15,15A15,15,0,0,0,18.375,3.375Zm1.01,16.3a1.013,1.013,0,0,1-1.01,1.01H11.452a1.01,1.01,0,1,1,0-2.019h5.913V9.144a1.01,1.01,0,1,1,2.019,0Z" transform="translate(5.63 3.63)" fill="#fff"/>
    </g>
  </g>
</svg>
