<svg xmlns="http://www.w3.org/2000/svg" xmlns:xlink="http://www.w3.org/1999/xlink" width="52" height="54" viewBox="0 0 52 54">
  <defs>
    <linearGradient id="linear-gradient" x2="1.02" y2="1.01" gradientUnits="objectBoundingBox">
      <stop offset="0" stop-color="#3023ae"/>
      <stop offset="1" stop-color="#4ba7b9"/>
    </linearGradient>
    <filter id="Icon_map-car-dealer" x="0" y="0" width="52" height="54" filterUnits="userSpaceOnUse">
      <feOffset dy="3" input="SourceAlpha"/>
      <feGaussianBlur stdDeviation="3" result="blur"/>
      <feFlood flood-opacity="0.302"/>
      <feComposite operator="in" in2="blur"/>
      <feComposite in="SourceGraphic"/>
    </filter>
  </defs>
  <g id="Component_142_1" data-name="Component 142 – 1" transform="translate(0.784 2)">
    <path id="bg" d="M20,0H45V45H20A20,20,0,0,1,0,25V20A20,20,0,0,1,20,0Z" fill="url(#linear-gradient)"/>
    <g transform="matrix(1, 0, 0, 1, -0.78, -2)" filter="url(#Icon_map-car-dealer)">
      <path id="Icon_map-car-dealer-2" data-name="Icon map-car-dealer" d="M33.871,8.556A9.293,9.293,0,0,0,31.1,7.619l-1.324-.18V4.186l.678-.011c.636.328,1.551.865,1.6,1.585H34.6a4.18,4.18,0,0,0-2.082-3.07A5.036,5.036,0,0,0,29.773,1.8V0H28.356V1.745a3.545,3.545,0,0,0-2.515,1.082,3.7,3.7,0,0,0-1.21,2.882A3.123,3.123,0,0,0,25.845,8.5a6.127,6.127,0,0,0,2.511.942v3.524c-.709-.127-.71-.1-.96-.4s-.307-1.054-.389-1.054H24.473a3.16,3.16,0,0,0,1.343,2.9,3.914,3.914,0,0,0,2.54.8V16.56h1.417V15.238a6.142,6.142,0,0,0,3.313-1.106,4.03,4.03,0,0,0,1.633-2.939c0-1.151-.091-2.029-.849-2.637ZM27.66,6.55a1.073,1.073,0,0,1-.571-1.035,1.282,1.282,0,0,1,.555-1.176c.22-.148,0-.255.712-.326V6.849C27.647,6.739,27.816,6.64,27.66,6.55Zm3.078,6.35c-.119.042-.964.075-.964.1V10c1.417.124,1.308.257,1.543.4a1.112,1.112,0,0,1,.555.991,1.5,1.5,0,0,1-1.134,1.5Zm-3.43,8.7h-.392l-4.354-8.01a1.323,1.323,0,0,0-1.051-.63H8.3a1.323,1.323,0,0,0-1.051.63L2.9,21.6H2.506c-.78,0-1.786.648-1.786,1.44v7.2c0,.792,1.006,1.44,1.786,1.44H3.554v2.16A2.493,2.493,0,0,0,6.049,36h.709c1.169,0,1.757-.972,1.757-2.16V31.68H20.561v2.16A2.492,2.492,0,0,0,23.056,36h.709c1.169,0,1.757-.972,1.757-2.16V31.68h1.786c.779,0,1.049-.648,1.049-1.44v-7.2c0-.792-.27-1.44-1.049-1.44ZM4.986,27.36a1.8,1.8,0,1,1,1.772-1.8A1.786,1.786,0,0,1,4.986,27.36ZM6.4,21.6l2.872-5.836A1.254,1.254,0,0,1,10.3,15.12h9.212a1.255,1.255,0,0,1,1.025.644L23.41,21.6H6.4Zm18.424,5.76a1.8,1.8,0,1,1,1.772-1.8A1.786,1.786,0,0,1,24.827,27.36Z" transform="translate(8.28 6)" fill="#fff"/>
    </g>
  </g>
</svg>
